<svg xmlns="http://www.w3.org/2000/svg" width="175" height="50" viewBox="0 0 175 50">
  <g fill="#FFFFFF" fill-rule="evenodd">
    <path d="M38.5948827 31.25L45.0447761 45 42.5266525 45 37.3358209 33.9340909 32.1449893 45 29.6268657 45 36.0767591 31.25 33.2313433 25.1840909 23.9360341 45 21.4179104 45 31.9722814 22.5 29.1268657 16.4340909 15.7270789 45 13.2089552 45 27.8678038 13.75 25.0223881 7.68409091 7.51812367 45 5 45 23.7633262 5 25.0223881 5 26.2814499 5 29.1268657 11.0659091 31.9722814 5 33.2313433 5 34.4904051 5 37.3358209 11.0659091 40.1812367 5 41.4402985 5 42.6993603 5 45.5447761 11.0659091 48.3901919 5 49.6492537 5 50.9083156 5 69.6716418 45 67.1535181 45 49.6492537 7.68409091 46.803838 13.75 61.4626866 45 58.9445629 45 45.5447761 16.4340909 42.6993603 22.5 53.2537313 45 50.7356077 45 41.4402985 25.1840909 38.5948827 31.25zM37.3358209 28.5659091L40.1812367 22.5 37.3358209 16.4340909 34.4904051 22.5 37.3358209 28.5659091zM33.2313433 19.8159091L36.0767591 13.75 33.2313433 7.68409091 30.3859275 13.75 33.2313433 19.8159091zM44.2857143 13.75L41.4402985 7.68409091 38.5948827 13.75 41.4402985 19.8159091 44.2857143 13.75zM82.7995605 31L84.7832031 20.8681641 88.0180664 28.1923828 91.3688965 20.8681641 93.151123 31 91.6923828 31 90.782959 25.3115234 87.9936523 31.4333496 85.2836914 25.3054199 84.2705078 31 82.7995605 31zM94.977002 26.2453613C94.977002 24.9188573 95.4632438 23.7795458 96.4357422 22.8273926 97.4041715 21.8752394 98.5678969 21.3991699 99.9269531 21.3991699 101.269733 21.3991699 102.421252 21.8793083 103.381543 22.8395996 104.345903 23.7998909 104.828076 24.9534438 104.828076 26.300293 104.828076 27.6552802 104.343869 28.8047642 103.375439 29.7487793 102.402941 30.6968635 101.229043 31.1708984 99.8537109 31.1708984 98.6370708 31.1708984 97.5445524 30.7497601 96.5761231 29.9074707 95.510037 28.9756627 94.977002 27.7549717 94.977002 26.2453613zM96.4113281 26.2636719C96.4113281 27.3053437 96.7612595 28.1618619 97.4611328 28.833252 98.1569371 29.504642 98.9605586 29.840332 99.8720215 29.840332 100.860796 29.840332 101.694935 29.4985386 102.374463 28.8149414 103.053991 28.1232062 103.39375 27.2809294 103.39375 26.2880859 103.39375 25.2830353 103.05806 24.4407586 102.38667 23.7612305 101.719349 23.0776333 100.893348 22.7358398 99.9086426 22.7358398 98.9280062 22.7358398 98.0999708 23.0776333 97.4245117 23.7612305 96.7490526 24.4366896 96.4113281 25.2708284 96.4113281 26.2636719zM106.916406 31L106.916406 20.9353027 113.788965 28.1252441 113.788965 21.5761719 115.211084 21.5761719 115.211084 31.5737305 108.338525 24.4020996 108.338525 31 106.916406 31zM117.384863 26.2453613C117.384863 24.9188573 117.871105 23.7795458 118.843604 22.8273926 119.812033 21.8752394 120.975758 21.3991699 122.334814 21.3991699 123.677595 21.3991699 124.829113 21.8793083 125.789404 22.8395996 126.753765 23.7998909 127.235938 24.9534438 127.235938 26.300293 127.235938 27.6552802 126.75173 28.8047642 125.783301 29.7487793 124.810802 30.6968635 123.636905 31.1708984 122.261572 31.1708984 121.044932 31.1708984 119.952414 30.7497601 118.983984 29.9074707 117.917898 28.9756627 117.384863 27.7549717 117.384863 26.2453613zM118.819189 26.2636719C118.819189 27.3053437 119.169121 28.1618619 119.868994 28.833252 120.564798 29.504642 121.36842 29.840332 122.279883 29.840332 123.268657 29.840332 124.102796 29.4985386 124.782324 28.8149414 125.461852 28.1232062 125.801611 27.2809294 125.801611 26.2880859 125.801611 25.2830353 125.465921 24.4407586 124.794531 23.7612305 124.12721 23.0776333 123.301209 22.7358398 122.316504 22.7358398 121.335868 22.7358398 120.507832 23.0776333 119.832373 23.7612305 119.156914 24.4366896 118.819189 25.2708284 118.819189 26.2636719zM134.170459 26.0927734L138.064502 26.0927734 138.064502 26.4040527C138.064502 27.1120641 137.981088 27.7386854 137.814258 28.2839355 137.651497 28.7884954 137.376841 29.2604958 136.990283 29.6999512 136.115442 30.6846566 135.002578 31.177002 133.65166 31.177002 132.333294 31.177002 131.204155 30.7009325 130.264209 29.7487793 129.324263 28.7925571 128.854297 27.6451076 128.854297 26.3063965 128.854297 24.9392021 129.332401 23.7795458 130.288623 22.8273926 131.244845 21.8711703 132.408571 21.3930664 133.779834 21.3930664 134.516329 21.3930664 135.203984 21.5436183 135.842822 21.8447266 136.453177 22.1458348 137.05335 22.6341112 137.643359 23.3095703L136.630176 24.2800293C135.85706 23.2505645 134.915093 22.7358398 133.804248 22.7358398 132.807336 22.7358398 131.971162 23.0796678 131.295703 23.767334 130.620244 24.4427931 130.28252 25.2891388 130.28252 26.3063965 130.28252 27.3562064 130.658899 28.2208625 131.41167 28.9003906 132.115612 29.5310904 132.878544 29.8464355 133.700488 29.8464355 134.400362 29.8464355 135.029017 29.6104353 135.586475 29.1384277 136.143932 28.6623511 136.455208 28.0926954 136.520313 27.4294434L134.170459 27.4294434 134.170459 26.0927734zM143.344971 26.9838867L146.262451 31 144.522949 31 141.831299 27.1425781 141.574951 27.1425781 141.574951 31 140.152832 31 140.152832 21.5761719 141.819092 21.5761719C143.064215 21.5761719 143.963458 21.8101376 144.516846 22.2780762 145.1272 22.7989121 145.432373 23.486568 145.432373 24.3410645 145.432373 25.0083855 145.241132 25.5821102 144.858643 26.0622559 144.476154 26.5424015 143.971602 26.8496087 143.344971 26.9838867zM141.574951 25.9035645L142.026611 25.9035645C143.373461 25.9035645 144.046875 25.3888398 144.046875 24.359375 144.046875 23.3950147 143.391771 22.9128418 142.081543 22.9128418L141.574951 22.9128418 141.574951 25.9035645zM153.514356 28.7111816L149.479932 28.7111816 148.430127 31 146.898145 31 151.561231 20.9841309 156.059522 31 154.503125 31 153.514356 28.7111816zM152.934522 27.3745117L151.536816 24.170166 150.071973 27.3745117 152.934522 27.3745117zM157.20791 31L159.191553 20.8681641 162.426416 28.1923828 165.777246 20.8681641 167.559473 31 166.100733 31 165.191309 25.3115234 162.402002 31.4333496 159.692041 25.3054199 158.678858 31 157.20791 31zM92.4912109 16L91.9785156 16 91.2509766 9.97949219 88.4921875 16.1806641 85.71875 9.97949219 84.9912109 16 84.4785156 16 85.4794922 8.28027344 88.4921875 15.1113281 91.4902344 8.27050781 92.4912109 16zM97.9691406 13.6806641C97.9691406 13.0719371 97.8071957 12.5893573 97.4833008 12.2329102 97.159406 11.8764631 96.728909 11.6982422 96.1917969 11.6982422 95.6807266 11.6982422 95.2656917 11.884601 94.9466797 12.2573242 94.6276677 12.6300474 94.4681641 13.1207652 94.4681641 13.7294922 94.4681641 14.3251983 94.6301091 14.7988264 94.9540039 15.1503906 95.2778988 15.5019549 95.7100234 15.6777344 96.2503906 15.6777344 96.7744818 15.6777344 97.1919581 15.4970721 97.5028321 15.1357422 97.813706 14.7744123 97.9691406 14.2893911 97.9691406 13.6806641zM98.4183594 16L97.9691406 16 97.9691406 15.1210938C97.7608063 15.4563819 97.5125991 15.7029615 97.2245117 15.8608398 96.9364244 16.0187182 96.5921895 16.0976562 96.1917969 16.0976562 95.5472624 16.0976562 95.0239929 15.8811871 94.6219727 15.4482422 94.2199524 15.0152973 94.0189453 14.4456416 94.0189453 13.7392578 94.0189453 13.0068323 94.2183249 12.4135765 94.6170899 11.9594727 95.0158549 11.5053688 95.5293589 11.2783203 96.1576172 11.2783203 96.6133487 11.2783203 96.9803697 11.3540031 97.2586914 11.5053711 97.5370131 11.656739 97.7738272 11.9082014 97.9691406 12.2597656L97.9691406 11.3808594 98.4183594 11.3808594 98.4183594 16zM104.111133 13.6806641C104.111133 13.0719371 103.949188 12.5893573 103.625293 12.2329102 103.301398 11.8764631 102.870901 11.6982422 102.333789 11.6982422 101.822719 11.6982422 101.407684 11.884601 101.088672 12.2573242 100.76966 12.6300474 100.610156 13.1207652 100.610156 13.7294922 100.610156 14.3251983 100.772101 14.7988264 101.095996 15.1503906 101.419891 15.5019549 101.852016 15.6777344 102.392383 15.6777344 102.916474 15.6777344 103.33395 15.4970721 103.644824 15.1357422 103.955698 14.7744123 104.111133 14.2893911 104.111133 13.6806641zM104.560352 16L104.111133 16 104.111133 15.1210938C103.902798 15.4563819 103.654591 15.7029615 103.366504 15.8608398 103.078417 16.0187182 102.734182 16.0976562 102.333789 16.0976562 101.689255 16.0976562 101.165985 15.8811871 100.763965 15.4482422 100.361945 15.0152973 100.160938 14.4456416 100.160938 13.7392578 100.160938 13.0068323 100.360317 12.4135765 100.759082 11.9594727 101.157847 11.5053688 101.671351 11.2783203 102.299609 11.2783203 102.781383 11.2783203 103.154914 11.3548169 103.420215 11.5078125 103.685516 11.6608081 103.915819 11.9114566 104.111133 12.2597656L104.111133 7.74804688 104.560352 7.74804688 104.560352 16zM110.131055 13.2363281C110.101758 12.7773415 109.93493 12.4062514 109.630566 12.1230469 109.326203 11.8398423 108.936396 11.6982422 108.461133 11.6982422 108.018422 11.6982422 107.640008 11.8406561 107.325879 12.1254883 107.01175 12.4103204 106.833529 12.7822243 106.791211 13.2412109L110.131055 13.2363281zM110.614453 13.6611328L106.761914 13.6611328C106.77168 14.3089225 106.924673 14.8069644 107.220899 15.1552734 107.517124 15.5035825 107.930531 15.6777344 108.461133 15.6777344 108.838739 15.6777344 109.162629 15.5947274 109.432813 15.4287109 109.702996 15.2626945 109.925976 15.0104184 110.101758 14.671875L110.492383 14.8720703C110.264517 15.2919943 109.9862 15.601236 109.657422 15.7998047 109.328644 15.9983734 108.929885 16.0976562 108.461133 16.0976562 107.790557 16.0976562 107.264846 15.8795595 106.883984 15.4433594 106.503123 15.0071593 106.312695 14.4130897 106.312695 13.6611328 106.312695 12.9645147 106.516144 12.3932314 106.923047 11.9472656 107.32995 11.5012999 107.84264 11.2783203 108.461133 11.2783203 109.108923 11.2783203 109.629751 11.4817688 110.023633 11.8886719 110.417515 12.295575 110.614453 12.8424445 110.614453 13.5292969L110.614453 13.6611328zM120.012695 13.7294922C120.012695 13.1207652 119.853192 12.6300474 119.53418 12.2573242 119.215168 11.884601 118.800133 11.6982422 118.289063 11.6982422 117.735674 11.6982422 117.301108 11.8740217 116.985352 12.2255859 116.669595 12.5771502 116.511719 13.0621714 116.511719 13.6806641 116.511719 14.2893911 116.670409 14.7744123 116.987793 15.1357422 117.305177 15.4970721 117.725909 15.6777344 118.25 15.6777344 118.787112 15.6777344 119.215168 15.5027687 119.53418 15.152832 119.853192 14.8028954 120.012695 14.3284535 120.012695 13.7294922zM120.461914 13.7392578C120.461914 14.4456416 120.260907 15.0152973 119.858887 15.4482422 119.456867 15.8811871 118.933597 16.0976562 118.289063 16.0976562 117.88867 16.0976562 117.544435 16.0187182 117.256348 15.8608398 116.96826 15.7029615 116.720053 15.4563819 116.511719 15.1210938L116.511719 16 116.0625 16 116.0625 7.74804688 116.511719 7.74804688 116.511719 12.2597656C116.690756 11.9374984 116.933267 11.6933602 117.239258 11.5273438 117.545249 11.3613273 117.904946 11.2783203 118.318359 11.2783203 118.949873 11.2783203 119.465005 11.5053688 119.86377 11.9594727 120.262535 12.4135765 120.461914 13.0068323 120.461914 13.7392578zM126.032617 11.3808594L122.839258 18.5976562 122.341211 18.5976562 123.65957 15.6679688 121.589258 11.3808594 122.092188 11.3808594 123.913477 15.1601562 125.529688 11.3808594 126.032617 11.3808594z"/>
  </g>
</svg>
