<svg xmlns="http://www.w3.org/2000/svg" viewBox="0 0 20 20"><path d="M10 .6c-.1 0-.1 0-.2.1L.7 5.5c-.2 0-.3.2-.3.3v.9c0 .2.2.4.4.4h18.3c.2 0 .4-.2.4-.4v-.9c0-.2-.1-.3-.2-.4L10.2.6c-.1.1-.1 0-.2 0zm0 2.6c.7 0 1.3.6 1.3 1.3s-.6 1.3-1.3 1.3c-.7 0-1.3-.6-1.3-1.3s.6-1.3 1.3-1.3zM2.6 8h-.9v.4c0 .2.2.4.4.4v5.6h2.6V8.9c.2 0 .4-.2.4-.4V8h-.7-1.8zM7 8c-.1 0-.1 0 0 0h-.9v.4c0 .2.2.4.4.4v5.6h2.6V8.9c.2 0 .4-.2.4-.4V8h-.7H7zm4.3 0h-.9v.4c0 .2.2.4.4.4v5.6h2.6V8.9c.2 0 .4-.2.4-.4V8H13 11.3zm4.4 0c-.1 0-.1 0 0 0h-.9v.4c0 .2.2.4.4.4v5.6h2.6V8.9c.2 0 .4-.2.4-.4V8h-.8H15.7zM1.3 15.4c-.2 0-.4.2-.4.4v.9H.4c-.2 0-.4.2-.4.4v1.3c0 .2.2.4.4.4h19.1c.2 0 .4-.2.4-.4v-1.3c0-.2-.2-.4-.4-.4h-.4v-.9c0-.2-.2-.4-.4-.4H1.3z"/></svg>