<svg xmlns="http://www.w3.org/2000/svg" viewBox="0 0 20 20"><style>.active .st0{fill:#4285F4;} .active .st1{fill:#34A853;} .active .st2{fill:#FBBC05;} .active .st3{fill:#EA4335;} .st4{fill:none;}</style><path class="st0" d="M19.1 10.2c0-.7-.1-1.3-.2-1.9H10V12h5.1c-.2 1.2-.9 2.2-1.9 2.9v2.4h3.1c1.8-1.8 2.8-4.2 2.8-7.1z"/><path class="st1" d="M10 19.5c2.6 0 4.7-.8 6.3-2.3l-3.1-2.4c-.8.6-1.9.9-3.2.9-2.5 0-4.6-1.7-5.3-3.9H1.5v2.5c1.6 3 4.8 5.2 8.5 5.2z"/><path class="st2" d="M4.7 11.8c-.2-.6-.3-1.2-.3-1.8s.1-1.2.3-1.8V5.7H1.5C.9 7 .5 8.4.5 10s.4 3 1 4.3l3.2-2.5z"/><path class="st3" d="M10 4.3c1.4 0 2.6.5 3.6 1.4L16.3 3C14.7 1.5 12.5.5 10 .5 6.3.5 3.1 2.6 1.5 5.7l3.2 2.5C5.4 6 7.5 4.3 10 4.3z"/></svg>