<svg viewBox="0 0 20 20" xmlns="http://www.w3.org/2000/svg"><path d="M13.52 9.08c-1.382-.966-3.566-2.517-4.93-3.6-.952-.755-1.12-.81-2.123-.01-1.9 1.515-6.05 4.79-6.05 4.79-.617.504-.522.714.105.714h.73v5.115c0 .405.21 1.016 1.044 1.016H6v-5.062h3v5.062h9.956c.835 0 1.044-.61 1.044-1.02V10.98s-.23-1-1.044-1.006c-.224-.002-4.152-.003-4.152-.003l-.284-.192V3.433h-1V9.08zm1.627-5.273s.35-.59 1.363-.59 1.256 1.007 2.142 1.007c.885 0 1.348-.417 1.348-.417v3.16s-.493.42-1.348.42c-.856 0-1.235-.963-2.142-.963-.907 0-1.363.543-1.363.543v-3.16zM7.5 10.442c.69 0 1.25-.547 1.25-1.22C8.75 8.546 8.19 8 7.5 8s-1.25.547-1.25 1.22c0 .675.56 1.222 1.25 1.222z" fill-rule="evenodd"/></svg>