<svg xmlns="http://www.w3.org/2000/svg" viewBox="0 0 20 20"><path d="M5.8 3.1c-.5-.1-.9.3-1.3.8-.3.5-3.2 4.9-4.1 6.2.1-.1.3-.1.5-.2s.4-.1.7-.2C1.9 9.3 4.8 5.4 5 5c.3-.4.7-.6 1.1-.3.5.2.9 1.2 1.1 1.7.2.7.9.6 1.2.2.2-.4.1-.8-.2-1.2-.2-.3-1.1-1.8-1.7-2.1-.3-.1-.5-.2-.7-.2zm8.4 0c-.2 0-.4.1-.6.2-.6.3-1.5 1.8-1.8 2.1-.3.5-.4.8-.2 1.2.2.4.9.5 1.2-.2.2-.5.6-1.5 1.1-1.8.4-.3.8-.1 1.1.3.3.5 3.2 4.4 3.5 4.8.3.1.5.1.7.2.2.1.4.1.5.1-.8-1.3-3.8-5.7-4.1-6.2-.4-.4-.8-.8-1.4-.7zm-9.1 7c-1.8 0-3.5.2-4.2.4-.8.1-.9.5-.9.8 0 .3.1.5.4.7s.4.5.4 1.3c0 2.8 1.8 3.6 4.6 3.6s3.9-1.4 3.9-3.5c.1-.5.2-1.2.8-1.2s.6.7.8 1.2c0 2.2 1.1 3.5 3.9 3.5s4.6-.8 4.6-3.6c0-.8.1-1.2.5-1.3.3-.2.4-.4.4-.7 0-.3-.1-.7-1-.8-.6-.2-2.3-.4-4.2-.4s-3.9.7-4.9.7-3.3-.7-5.1-.7zm-.3.9c2.9 0 3.5.4 3.5 2.1.1 1.7-.8 2.8-2.9 2.8s-3.5-.7-3.5-2.6c-.1-1.5-.6-2.3 2.9-2.3zm9.4 0h1c3.4 0 3 .8 3 2.3 0 1.9-1.4 2.6-3.5 2.6s-2.9-1.1-2.9-2.8c0-1.5.4-2 2.4-2.1z"/></svg>