<svg width="66px" height="41px" viewBox="767 393 66 41" version="1.1" xmlns="http://www.w3.org/2000/svg" xmlns:xlink="http://www.w3.org/1999/xlink">
    <path d="M801.594883,419.25 L808.044776,433 L804.526652,433 L799.835821,423 L795.144989,433 L791.626866,433 L798.076759,419.25 L795.731343,414.25 L786.936034,433 L783.41791,433 L793.972281,410.5 L791.626866,405.5 L778.727079,433 L775.208955,433 L789.867804,401.75 L787.522388,396.75 L770.518124,433 L767,433 L785.763326,393 L787.522388,393 L789.28145,393 L791.626866,398 L793.972281,393 L795.731343,393 L797.490405,393 L799.835821,398 L802.181237,393 L803.940299,393 L805.69936,393 L808.044776,398 L810.390192,393 L812.149254,393 L813.908316,393 L832.671642,433 L829.153518,433 L812.149254,396.75 L809.803838,401.75 L824.462687,433 L820.944563,433 L808.044776,405.5 L805.69936,410.5 L816.253731,433 L812.735608,433 L803.940299,414.25 L801.594883,419.25 Z M799.835821,415.5 L802.181237,410.5 L799.835821,405.5 L797.490405,410.5 L799.835821,415.5 Z M795.731343,406.75 L798.076759,401.75 L795.731343,396.75 L793.385928,401.75 L795.731343,406.75 Z M806.285714,401.75 L803.940299,396.75 L801.594883,401.75 L803.940299,406.75 L806.285714,401.75 Z" stroke="none" fill="#4B5F66" fill-rule="evenodd"></path>
</svg>